<?xml version="1.0" standalone="no"?>
<!DOCTYPE svg PUBLIC "-//W3C//DTD SVG 20010904//EN"
 "http://www.w3.org/TR/2001/REC-SVG-20010904/DTD/svg10.dtd">
<svg version="1.0" xmlns="http://www.w3.org/2000/svg"
 width="350.000000pt" height="350.000000pt" viewBox="0 0 350.000000 350.000000"
 preserveAspectRatio="xMidYMid meet">
<metadata>
Created by potrace 1.15, written by Peter Selinger 2001-2017
</metadata><g><rect x="0" y="0" width="350" height="350" fill="#ffffff" />
<g transform="translate(0.000000,350.000000) scale(0.050000,-0.050000)"
fill="#000000" stroke="none">
<path d="M600 5700 l0 -700 700 0 700 0 0 700 0 700 -700 0 -700 0 0 -700z
m1200 0 l0 -500 -500 0 -500 0 0 500 0 500 500 0 500 0 0 -500z"/>
<path d="M1000 5700 l0 -300 300 0 300 0 0 300 0 300 -300 0 -300 0 0 -300z"/>
<path d="M2200 6300 l0 -100 200 0 200 0 0 100 0 100 -200 0 -200 0 0 -100z"/>
<path d="M3600 6300 l0 -100 -100 0 -100 0 0 -100 0 -100 -300 0 -300 0 0
-200 0 -200 -100 0 -100 0 0 100 0 100 -100 0 -100 0 0 100 0 100 -100 0 -100
0 0 -300 0 -300 100 0 100 0 0 -100 0 -100 -100 0 -100 0 0 -100 0 -100 100 0
100 0 0 -100 0 -100 -100 0 -100 0 0 -100 0 -100 -100 0 -100 0 0 100 0 100
-100 0 -100 0 0 -100 0 -100 -100 0 -100 0 0 -100 0 -100 100 0 100 0 0 -100
0 -100 100 0 100 0 0 -100 0 -100 -100 0 -100 0 0 -100 0 -100 -100 0 -100 0
0 200 0 200 -100 0 -100 0 0 300 0 300 -400 0 -400 0 0 -600 0 -600 100 0 100
0 0 200 0 200 100 0 100 0 0 -300 0 -300 200 0 200 0 0 100 0 100 100 0 100 0
0 -300 0 -300 -100 0 -100 0 0 100 0 100 -100 0 -100 0 0 -100 0 -100 -200 0
-200 0 0 -100 0 -100 -100 0 -100 0 0 -100 0 -100 100 0 100 0 0 100 0 100
200 0 200 0 0 100 0 100 100 0 100 0 0 -100 0 -100 200 0 200 0 0 -100 0 -100
-200 0 -200 0 0 -100 0 -100 200 0 200 0 0 -100 0 -100 100 0 100 0 0 100 0
100 100 0 100 0 0 200 0 200 100 0 100 0 0 -300 0 -300 -100 0 -100 0 0 -100
0 -100 100 0 100 0 0 100 0 100 100 0 100 0 0 100 0 100 100 0 100 0 0 -100 0
-100 100 0 100 0 0 -100 0 -100 -100 0 -100 0 0 -100 0 -100 300 0 300 0 0
100 0 100 100 0 100 0 0 100 0 100 100 0 100 0 0 100 0 100 -100 0 -100 0 0
-100 0 -100 -100 0 -100 0 0 100 0 100 -100 0 -100 0 0 200 0 200 100 0 100 0
0 100 0 100 -200 0 -200 0 0 100 0 100 200 0 200 0 0 100 0 100 100 0 100 0 0
100 0 100 -100 0 -100 0 0 100 0 100 -100 0 -100 0 0 -100 0 -100 -100 0 -100
0 0 200 0 200 300 0 300 0 0 -100 0 -100 100 0 100 0 0 -300 0 -300 100 0 100
0 0 -100 0 -100 200 0 200 0 0 100 0 100 200 0 200 0 0 -100 0 -100 100 0 100
0 0 100 0 100 100 0 100 0 0 100 0 100 -100 0 -100 0 0 100 0 100 100 0 100 0
0 100 0 100 -100 0 -100 0 0 200 0 200 -200 0 -200 0 0 -200 0 -200 -100 0
-100 0 0 -300 0 -300 -200 0 -200 0 0 200 0 200 100 0 100 0 0 200 0 200 100
0 100 0 0 100 0 100 -100 0 -100 0 0 -100 0 -100 -100 0 -100 0 0 200 0 200
-100 0 -100 0 0 -100 0 -100 -100 0 -100 0 0 100 0 100 -100 0 -100 0 0 -100
0 -100 -300 0 -300 0 0 -200 0 -200 -100 0 -100 0 0 100 0 100 -100 0 -100 0
0 -100 0 -100 -100 0 -100 0 0 200 0 200 100 0 100 0 0 100 0 100 100 0 100 0
0 100 0 100 -100 0 -100 0 0 100 0 100 100 0 100 0 0 100 0 100 100 0 100 0 0
-100 0 -100 100 0 100 0 0 100 0 100 100 0 100 0 0 -200 0 -200 300 0 300 0 0
100 0 100 -100 0 -100 0 0 300 0 300 -100 0 -100 0 0 100 0 100 -100 0 -100 0
0 -100 0 -100 -100 0 -100 0 0 200 0 200 400 0 400 0 0 200 0 200 100 0 100 0
0 -100 0 -100 100 0 100 0 0 200 0 200 -300 0 -300 0 0 -100z m-600 -1100 l0
-200 -100 0 -100 0 0 100 0 100 -100 0 -100 0 0 -100 0 -100 -100 0 -100 0 0
100 0 100 100 0 100 0 0 100 0 100 200 0 200 0 0 -200z m400 0 l0 -200 -100 0
-100 0 0 200 0 200 100 0 100 0 0 -200z m-2200 -700 l0 -100 -200 0 -200 0 0
100 0 100 200 0 200 0 0 -100z m800 0 l0 -100 -100 0 -100 0 0 100 0 100 100
0 100 0 0 -100z m400 0 l0 -100 -100 0 -100 0 0 100 0 100 100 0 100 0 0 -100z
m-1200 -400 l0 -100 -100 0 -100 0 0 100 0 100 100 0 100 0 0 -100z m2800
-200 l0 -100 -100 0 -100 0 0 100 0 100 100 0 100 0 0 -100z m-2000 -200 l0
-100 -100 0 -100 0 0 100 0 100 100 0 100 0 0 -100z m3000 0 l0 -100 -200 0
-200 0 0 100 0 100 200 0 200 0 0 -100z m-2600 -300 l0 -200 100 0 100 0 0
200 0 200 200 0 200 0 0 -200 0 -200 -200 0 -200 0 0 -100 0 -100 200 0 200 0
0 -100 0 -100 -100 0 -100 0 0 -100 0 -100 100 0 100 0 0 -100 0 -100 -100 0
-100 0 0 100 0 100 -100 0 -100 0 0 200 0 200 -100 0 -100 0 0 100 0 100 -300
0 -300 0 0 100 0 100 200 0 200 0 0 100 0 100 100 0 100 0 0 -200z m1000 100
l0 -100 -100 0 -100 0 0 100 0 100 100 0 100 0 0 -100z m-1400 -600 l0 -100
-100 0 -100 0 0 100 0 100 100 0 100 0 0 -100z m0 -400 l0 -100 -100 0 -100 0
0 100 0 100 100 0 100 0 0 -100z"/>
<path d="M4600 6200 l0 -200 100 0 100 0 0 200 0 200 -100 0 -100 0 0 -200z"/>
<path d="M5000 5700 l0 -700 700 0 700 0 0 700 0 700 -700 0 -700 0 0 -700z
m1200 0 l0 -500 -500 0 -500 0 0 500 0 500 500 0 500 0 0 -500z"/>
<path d="M5400 5700 l0 -300 300 0 300 0 0 300 0 300 -300 0 -300 0 0 -300z"/>
<path d="M4600 5700 l0 -100 100 0 100 0 0 100 0 100 -100 0 -100 0 0 -100z"/>
<path d="M4000 5500 l0 -100 -100 0 -100 0 0 -200 0 -200 100 0 100 0 0 -100
0 -100 100 0 100 0 0 -100 0 -100 100 0 100 0 0 -100 0 -100 100 0 100 0 0
100 0 100 200 0 200 0 0 -100 0 -100 300 0 300 0 0 100 0 100 200 0 200 0 0
100 0 100 -300 0 -300 0 0 -100 0 -100 -200 0 -200 0 0 100 0 100 -100 0 -100
0 0 300 0 300 -200 0 -200 0 0 100 0 100 -200 0 -200 0 0 -100z m200 -400 l0
-100 100 0 100 0 0 100 0 100 100 0 100 0 0 -200 0 -200 -200 0 -200 0 0 100
0 100 -100 0 -100 0 0 100 0 100 100 0 100 0 0 -100z"/>
<path d="M6200 4600 l0 -200 -200 0 -200 0 0 -100 0 -100 200 0 200 0 0 -100
0 -100 100 0 100 0 0 100 0 100 -100 0 -100 0 0 100 0 100 100 0 100 0 0 200
0 200 -100 0 -100 0 0 -200z"/>
<path d="M5200 4100 l0 -100 200 0 200 0 0 -100 0 -100 100 0 100 0 0 -200 0
-200 100 0 100 0 0 -200 0 -200 -100 0 -100 0 0 100 0 100 -100 0 -100 0 0
200 0 200 -100 0 -100 0 0 -300 0 -300 -100 0 -100 0 0 -200 0 -200 -200 0
-200 0 0 100 0 100 -100 0 -100 0 0 -100 0 -100 -300 0 -300 0 0 -300 0 -300
-100 0 -100 0 0 -100 0 -100 -100 0 -100 0 0 -100 0 -100 -100 0 -100 0 0
-200 0 -200 -100 0 -100 0 0 200 0 200 -100 0 -100 0 0 -100 0 -100 -100 0
-100 0 0 -300 0 -300 -100 0 -100 0 0 100 0 100 -100 0 -100 0 0 100 0 100
100 0 100 0 0 200 0 200 -100 0 -100 0 0 -100 0 -100 -100 0 -100 0 0 -400 0
-400 300 0 300 0 0 100 0 100 100 0 100 0 0 -100 0 -100 100 0 100 0 0 100 0
100 -100 0 -100 0 0 200 0 200 100 0 100 0 0 -100 0 -100 100 0 100 0 0 -200
0 -200 100 0 100 0 0 200 0 200 -100 0 -100 0 0 100 0 100 100 0 100 0 0 100
0 100 100 0 100 0 0 -100 0 -100 100 0 100 0 0 100 0 100 -100 0 -100 0 0 200
0 200 200 0 200 0 0 200 0 200 100 0 100 0 0 100 0 100 100 0 100 0 0 -200 0
-200 -100 0 -100 0 0 -200 0 -200 100 0 100 0 0 -100 0 -100 -100 0 -100 0 0
-100 0 -100 -100 0 -100 0 0 -300 0 -300 300 0 300 0 0 200 0 200 -100 0 -100
0 0 -100 0 -100 -100 0 -100 0 0 200 0 200 300 0 300 0 0 100 0 100 100 0 100
0 0 -200 0 -200 -100 0 -100 0 0 -100 0 -100 100 0 100 0 0 100 0 100 100 0
100 0 0 100 0 100 200 0 200 0 0 -100 0 -100 -100 0 -100 0 0 -100 0 -100 100
0 100 0 0 100 0 100 100 0 100 0 0 -200 0 -200 100 0 100 0 0 200 0 200 100 0
100 0 0 200 0 200 -100 0 -100 0 0 300 0 300 100 0 100 0 0 100 0 100 -200 0
-200 0 0 300 0 300 100 0 100 0 0 300 0 300 100 0 100 0 0 200 0 200 -200 0
-200 0 0 100 0 100 -200 0 -200 0 0 100 0 100 -200 0 -200 0 0 -100z m400
-1200 l0 -100 100 0 100 0 0 -200 0 -200 -100 0 -100 0 0 100 0 100 -100 0
-100 0 0 -100 0 -100 -100 0 -100 0 0 100 0 100 100 0 100 0 0 200 0 200 100
0 100 0 0 -100z m-800 -400 l0 -100 -100 0 -100 0 0 100 0 100 100 0 100 0 0
-100z m600 -600 l0 -300 -300 0 -300 0 0 300 0 300 300 0 300 0 0 -300z m600
-100 l0 -200 -100 0 -100 0 0 -100 0 -100 200 0 200 0 0 -200 0 -200 -100 0
-100 0 0 100 0 100 -100 0 -100 0 0 100 0 100 -100 0 -100 0 0 100 0 100 100
0 100 0 0 200 0 200 100 0 100 0 0 -200z"/>
<path d="M5000 1900 l0 -100 100 0 100 0 0 100 0 100 -100 0 -100 0 0 -100z"/>
<path d="M3600 2700 l0 -100 100 0 100 0 0 100 0 100 -100 0 -100 0 0 -100z"/>
<path d="M1000 2500 l0 -100 -100 0 -100 0 0 -100 0 -100 100 0 100 0 0 100 0
100 100 0 100 0 0 100 0 100 -100 0 -100 0 0 -100z"/>
<path d="M600 1300 l0 -700 700 0 700 0 0 700 0 700 -700 0 -700 0 0 -700z
m1200 0 l0 -500 -500 0 -500 0 0 500 0 500 500 0 500 0 0 -500z"/>
<path d="M1000 1300 l0 -300 300 0 300 0 0 300 0 300 -300 0 -300 0 0 -300z"/>
</g>
</g></svg>
